ffmpeg version 4.4.2-0ubuntu0.22.04.1 Copyright (c) 2000-2021 the FFmpeg developers
  built with gcc 11 (Ubuntu 11.2.0-19ubuntu1)
  configuration: --prefix=/usr --extra-version=0ubuntu0.22.04.1 --toolchain=hardened --libdir=/usr/lib/x86_64-linux-gnu --incdir=/usr/include/x86_64-linux-gnu --arch=amd64 --enable-gpl --disable-stripping --enable-gnutls --enable-ladspa --enable-libaom --enable-libass --enable-libbluray --enable-libbs2b --enable-libcaca --enable-libcdio --enable-libcodec2 --enable-libdav1d --enable-libflite --enable-libfontconfig --enable-libfreetype --enable-libfribidi --enable-libgme --enable-libgsm --enable-libjack --enable-libmp3lame --enable-libmysofa --enable-libopenjpeg --enable-libopenmpt --enable-libopus --enable-libpulse --enable-librabbitmq --enable-librubberband --enable-libshine --enable-libsnappy --enable-libsoxr --enable-libspeex --enable-libsrt --enable-libssh --enable-libtheora --enable-libtwolame --enable-libvidstab --enable-libvorbis --enable-libvpx --enable-libwebp --enable-libx265 --enable-libxml2 --enable-libxvid --enable-libzimg --enable-libzmq --enable-libzvbi --enable-lv2 --enable-omx --enable-openal --enable-opencl --enable-opengl --enable-sdl2 --enable-pocketsphinx --enable-librsvg --enable-libmfx --enable-libdc1394 --enable-libdrm --enable-libiec61883 --enable-chromaprint --enable-frei0r --enable-libx264 --enable-shared
  libavutil      56. 70.100 / 56. 70.100
  libavcodec     58.134.100 / 58.134.100
  libavformat    58. 76.100 / 58. 76.100
  libavdevice    58. 13.100 / 58. 13.100
  libavfilter     7.110.100 /  7.110.100
  libswscale      5.  9.100 /  5.  9.100
  libswresample   3.  9.100 /  3.  9.100
  libpostproc    55.  9.100 / 55.  9.100
Input #0, flv, from '/storage/32426326/20250718/32426326-20250718-153127-254.flv':
  Metadata:
    4.0             : false
    encoder         : obs-output module (libobs version 31.0.2)
    3.1             : false
    fps             : 60
    displayHeight   : 1440
    audiochannels   : 2
    cdn_ip          : 192.168.252.4
    2.1             : false
    5.1             : false
    fileSize        : 0
    7.1             : false
    4.1             : false
    displayWidth    : 2560
    Title           : 技术主播没有GG
    Artist          : 蓝音BuBuLine (32426326)
    Comment         : mikufans直播间 32426326 的直播录像
                    : 主播名: 蓝音BuBuLine
                    : 直播标题: 技术主播没有GG
                    : 直播分区: 单机游戏·主机游戏
                    : 录制时间: 2025-07-18T15:31:27.3359598+00:00
                    : 直播服务器:
                    : d1--ov-gotcha07.bilivideo.com [156.59.188.244]
                    : 
                    : 使用 mikufans录播姬 录制 https://rec.danmuji.org
                    : 录播姬版本: 2.17.3
    RecordedBy      : BililiveRecorder mikufans录播姬
    RecordedFrom    : d1--ov-gotcha07.bilivideo.com
    StreamServers   : d1--ov-gotcha07.bilivideo.com [156.59.188.244]
    RecorderVersion : 2.17.3+Branch.tags-v2.17.3.Sha.96407e2eba9a597dd9997c6fb731725f4294a371
    StartTime       : Fri, 18 Jul 2025 15:31:27 +0000
    RoomId          : 32426326
    ShortId         : 0
    Name            : 蓝音BuBuLine
    StreamTitle     : 技术主播没有GG
    AreaNameParent  : 单机游戏
    AreaNameChild   : 主机游戏
  Duration: 03:30:45.87, start: 0.035000, bitrate: 8101 kb/s
  Stream #0:0: Video: h264 (High), yuv420p(tv, bt709, progressive), 2560x1440 [SAR 1:1 DAR 16:9], 10240 kb/s, 60 fps, 60 tbr, 1k tbn, 120 tbc
  Stream #0:1: Audio: aac (LC), 48000 Hz, stereo, fltp, 196 kb/s
Stream mapping:
  Stream #0:0 -> #0:0 (h264 (native) -> png (native))
Press [q] to stop, [?] for help
Output #0, image2, to '/storage/32426326/20250718/32426326-20250718-153127-254.all.thumb.png':
  Metadata:
    4.0             : false
    AreaNameChild   : 主机游戏
    3.1             : false
    fps             : 60
    displayHeight   : 1440
    audiochannels   : 2
    cdn_ip          : 192.168.252.4
    2.1             : false
    5.1             : false
    fileSize        : 0
    7.1             : false
    4.1             : false
    displayWidth    : 2560
    Title           : 技术主播没有GG
    Artist          : 蓝音BuBuLine (32426326)
    Comment         : mikufans直播间 32426326 的直播录像
                    : 主播名: 蓝音BuBuLine
                    : 直播标题: 技术主播没有GG
                    : 直播分区: 单机游戏·主机游戏
                    : 录制时间: 2025-07-18T15:31:27.3359598+00:00
                    : 直播服务器:
                    : d1--ov-gotcha07.bilivideo.com [156.59.188.244]
                    : 
                    : 使用 mikufans录播姬 录制 https://rec.danmuji.org
                    : 录播姬版本: 2.17.3
    RecordedBy      : BililiveRecorder mikufans录播姬
    RecordedFrom    : d1--ov-gotcha07.bilivideo.com
    StreamServers   : d1--ov-gotcha07.bilivideo.com [156.59.188.244]
    RecorderVersion : 2.17.3+Branch.tags-v2.17.3.Sha.96407e2eba9a597dd9997c6fb731725f4294a371
    StartTime       : Fri, 18 Jul 2025 15:31:27 +0000
    RoomId          : 32426326
    ShortId         : 0
    Name            : 蓝音BuBuLine
    StreamTitle     : 技术主播没有GG
    AreaNameParent  : 单机游戏
    encoder         : Lavf58.76.100
  Stream #0:0: Video: png, rgb24(pc, gbr/bt709/bt709, progressive), 2560x1440 [SAR 1:1 DAR 16:9], q=2-31, 200 kb/s, 60 fps, 60 tbn
    Metadata:
      encoder         : Lavc58.134.100 png
frame=    1 fps=0.0 q=0.0 size=N/A time=00:00:00.00 bitrate=N/A speed=   0x    frame=    1 fps=0.0 q=-0.0 Lsize=N/A time=00:00:00.01 bitrate=N/A speed=0.0276x    
video:1216kB audio:0kB subtitle:0kB other streams:0kB global headers:0kB muxing overhead: unknown
ffmpeg version 4.4.2-0ubuntu0.22.04.1 Copyright (c) 2000-2021 the FFmpeg developers
  built with gcc 11 (Ubuntu 11.2.0-19ubuntu1)
  configuration: --prefix=/usr --extra-version=0ubuntu0.22.04.1 --toolchain=hardened --libdir=/usr/lib/x86_64-linux-gnu --incdir=/usr/include/x86_64-linux-gnu --arch=amd64 --enable-gpl --disable-stripping --enable-gnutls --enable-ladspa --enable-libaom --enable-libass --enable-libbluray --enable-libbs2b --enable-libcaca --enable-libcdio --enable-libcodec2 --enable-libdav1d --enable-libflite --enable-libfontconfig --enable-libfreetype --enable-libfribidi --enable-libgme --enable-libgsm --enable-libjack --enable-libmp3lame --enable-libmysofa --enable-libopenjpeg --enable-libopenmpt --enable-libopus --enable-libpulse --enable-librabbitmq --enable-librubberband --enable-libshine --enable-libsnappy --enable-libsoxr --enable-libspeex --enable-libsrt --enable-libssh --enable-libtheora --enable-libtwolame --enable-libvidstab --enable-libvorbis --enable-libvpx --enable-libwebp --enable-libx265 --enable-libxml2 --enable-libxvid --enable-libzimg --enable-libzmq --enable-libzvbi --enable-lv2 --enable-omx --enable-openal --enable-opencl --enable-opengl --enable-sdl2 --enable-pocketsphinx --enable-librsvg --enable-libmfx --enable-libdc1394 --enable-libdrm --enable-libiec61883 --enable-chromaprint --enable-frei0r --enable-libx264 --enable-shared
  libavutil      56. 70.100 / 56. 70.100
  libavcodec     58.134.100 / 58.134.100
  libavformat    58. 76.100 / 58. 76.100
  libavdevice    58. 13.100 / 58. 13.100
  libavfilter     7.110.100 /  7.110.100
  libswscale      5.  9.100 /  5.  9.100
  libswresample   3.  9.100 /  3.  9.100
  libpostproc    55.  9.100 / 55.  9.100
[flv @ 0x60dd5653f400] Auto-inserting h264_mp4toannexb bitstream filter
Input #0, concat, from '/storage/32426326/20250718/32426326-20250718-153127-254.all.concat.txt':
  Duration: N/A, start: 0.000000, bitrate: 10436 kb/s
  Stream #0:0: Video: h264 (High), yuv420p(tv, bt709, progressive), 2560x1440 [SAR 1:1 DAR 16:9], 10240 kb/s, 60 fps, 60 tbr, 1k tbn, 120 tbc
  Stream #0:1: Audio: aac (LC), 48000 Hz, stereo, fltp, 196 kb/s
Output #0, flv, to '/storage/32426326/20250718/32426326-20250718-153127-254.all.flv':
  Metadata:
    encoder         : Lavf58.76.100
  Stream #0:0: Video: h264 (High) ([7][0][0][0] / 0x0007), yuv420p(tv, bt709, progressive), 2560x1440 [SAR 1:1 DAR 16:9], q=2-31, 10240 kb/s, 60 fps, 60 tbr, 1k tbn, 1k tbc
  Stream #0:1: Audio: aac (LC) ([10][0][0][0] / 0x000A), 48000 Hz, stereo, fltp, 196 kb/s
Stream mapping:
  Stream #0:0 -> #0:0 (copy)
  Stream #0:1 -> #0:1 (copy)
Press [q] to stop, [?] for help
frame=    1 fps=0.0 q=-1.0 size=       0kB time=00:00:00.00 bitrate=N/A speed=N/A    frame= 4667 fps=0.0 q=-1.0 size=   33536kB time=00:01:17.84 bitrate=3529.0kbits/s speed= 156x    frame= 6765 fps=6759 q=-1.0 size=   67840kB time=00:01:52.77 bitrate=4927.7kbits/s speed= 113x    frame= 8534 fps=5686 q=-1.0 size=  102912kB time=00:02:22.27 bitrate=5925.7kbits/s speed=94.8x    frame=10127 fps=5060 q=-1.0 size=  136192kB time=00:02:48.83 bitrate=6608.3kbits/s speed=84.4x    frame=11694 fps=4674 q=-1.0 size=  168960kB time=00:03:14.89 bitrate=7101.9kbits/s speed=77.9x    frame=13357 fps=4449 q=-1.0 size=  203264kB time=00:03:42.60 bitrate=7480.3kbits/s speed=74.1x    frame=14888 fps=4250 q=-1.0 size=  235008kB time=00:04:08.13 bitrate=7758.7kbits/s speed=70.8x    frame=16426 fps=4102 q=-1.0 size=  267520kB time=00:04:33.76 bitrate=8005.0kbits/s speed=68.4x    frame=18109 fps=4020 q=-1.0 size=  302080kB time=00:05:01.80 bitrate=8199.5kbits/s speed=  67x    frame=19679 fps=3932 q=-1.0 size=  334848kB time=00:05:27.93 bitrate=8364.8kbits/s speed=65.5x    frame=21261 fps=3862 q=-1.0 size=  367872kB time=00:05:54.28 bitrate=8506.2kbits/s speed=64.4x    frame=22829 fps=3801 q=-1.0 size=  400384kB time=00:06:20.43 bitrate=8621.5kbits/s speed=63.3x    frame=24365 fps=3745 q=-1.0 size=  432384kB time=00:06:46.00 bitrate=8724.2kbits/s speed=62.4x    frame=26079 fps=3722 q=-1.0 size=  467968kB time=00:07:14.57 bitrate=8821.5kbits/s speed=  62x    frame=27787 fps=3701 q=-1.0 size=  503296kB time=00:07:43.04 bitrate=8904.1kbits/s speed=61.7x    frame=29386 fps=3670 q=-1.0 size=  536576kB time=00:08:09.67 bitrate=8976.7kbits/s speed=61.2x    frame=30971 fps=3640 q=-1.0 size=  569856kB time=00:08:36.07 bitrate=9045.7kbits/s speed=60.7x    frame=32561 fps=3614 q=-1.0 size=  602624kB time=00:09:02.55 bitrate=9098.9kbits/s speed=60.2x    frame=34109 fps=3587 q=-1.0 size=  633344kB time=00:09:28.35 bitrate=9128.7kbits/s speed=59.8x    frame=35651 fps=3562 q=-1.0 size=  665344kB time=00:09:54.04 bitrate=9175.3kbits/s speed=59.3x    frame=37121 fps=3532 q=-1.0 size=  696064kB time=00:10:18.54 bitrate=9218.7kbits/s speed=58.9x    frame=38583 fps=3504 q=-1.0 size=  726528kB time=00:10:42.87 bitrate=9258.0kbits/s speed=58.4x    frame=40164 fps=3489 q=-1.0 size=  759296kB time=00:11:09.21 bitrate=9294.7kbits/s speed=58.1x    frame=41718 fps=3473 q=-1.0 size=  791552kB time=00:11:35.11 bitrate=9328.6kbits/s speed=57.9x    frame=43300 fps=3461 q=-1.0 size=  824576kB time=00:12:01.45 bitrate=9363.0kbits/s speed=57.7x    frame=44943 fps=3453 q=-1.0 size=  858880kB time=00:12:28.85 bitrate=9395.6kbits/s speed=57.5x    frame=46516 fps=3442 q=-1.0 size=  891392kB time=00:12:55.05 bitrate=9421.6kbits/s speed=57.3x    frame=48017 fps=3426 q=-1.0 size=  922624kB time=00:13:20.02 bitrate=9447.4kbits/s speed=57.1x    frame=49527 fps=3412 q=-1.0 size=  954112kB time=00:13:45.20 bitrate=9471.7kbits/s speed=56.9x    frame=51201 fps=3410 q=-1.0 size=  989184kB time=00:14:13.09 bitrate=9498.9kbits/s speed=56.8x    frame=52694 fps=3396 q=-1.0 size= 1020160kB time=00:14:37.93 bitrate=9519.1kbits/s speed=56.6x    frame=54318 fps=3391 q=-1.0 size= 1053696kB time=00:15:04.98 bitrate=9538.1kbits/s speed=56.5x    frame=55971 fps=3389 q=-1.0 size= 1088000kB time=00:15:32.54 bitrate=9557.6kbits/s speed=56.5x    frame=57513 fps=3380 q=-1.0 size= 1120256kB time=00:15:58.24 bitrate=9577.0kbits/s speed=56.3x    frame=58985 fps=3367 q=-1.0 size= 1150720kB time=00:16:22.72 bitrate=9592.4kbits/s speed=56.1x    frame=60571 fps=3361 q=-1.0 size= 1183744kB time=00:16:49.15 bitrate=9609.3kbits/s speed=  56x    frame=62056 fps=3351 q=-1.0 size= 1214464kB time=00:17:13.90 bitrate=9622.7kbits/s speed=55.8x    frame=63612 fps=3344 q=-1.0 size= 1246976kB time=00:17:39.82 bitrate=9638.6kbits/s speed=55.7x    frame=65308 fps=3345 q=-1.0 size= 1282048kB time=00:18:08.07 bitrate=9652.4kbits/s speed=55.7x    frame=66771 fps=3335 q=-1.0 size= 1312512kB time=00:18:32.43 bitrate=9665.4kbits/s speed=55.6x    frame=68471 fps=3337 q=-1.0 size= 1347840kB time=00:19:00.74 bitrate=9679.2kbits/s speed=55.6x    frame=70061 fps=3333 q=-1.0 size= 1380864kB time=00:19:27.21 bitrate=9691.5kbits/s speed=55.5x    frame=72298 fps=3359 q=-1.0 size= 1411840kB time=00:20:04.49 bitrate=9602.2kbits/s speed=  56x    frame=74647 fps=3390 q=-1.0 size= 1446144kB time=00:20:43.62 bitrate=9526.1kbits/s speed=56.5x    frame=77012 fps=3419 q=-1.0 size= 1479424kB time=00:21:23.03 bitrate=9445.9kbits/s speed=  57x    frame=79130 fps=3437 q=-1.0 size= 1509888kB time=00:21:58.32 bitrate=9382.4kbits/s speed=57.3x    frame=81193 fps=3452 q=-1.0 size= 1541888kB time=00:22:32.70 bitrate=9337.7kbits/s speed=57.5x    frame=83721 fps=3485 q=-1.0 size= 1573376kB time=00:23:14.81 bitrate=9240.7kbits/s speed=58.1x    frame=85631 fps=3491 q=-1.0 size= 1604352kB time=00:23:46.62 bitrate=9212.6kbits/s speed=58.2x    frame=87848 fps=3510 q=-1.0 size= 1637632kB time=00:24:23.53 bitrate=9166.5kbits/s speed=58.5x    frame=89810 fps=3518 q=-1.0 size= 1668096kB time=00:24:56.23 bitrate=9133.0kbits/s speed=58.6x    frame=91748 fps=3525 q=-1.0 size= 1701632kB time=00:25:28.50 bitrate=9119.9kbits/s speed=58.7x    frame=93871 fps=3538 q=-1.0 size= 1734144kB time=00:26:03.88 bitrate=9083.9kbits/s speed=58.9x    frame=95872 fps=3547 q=-1.0 size= 1764608kB time=00:26:37.20 bitrate=9050.6kbits/s speed=59.1x    frame=98011 fps=3560 q=-1.0 size= 1797376kB time=00:27:12.85 bitrate=9017.4kbits/s speed=59.3x    frame=100013 fps=3568 q=-1.0 size= 1832704kB time=00:27:46.16 bitrate=9010.8kbits/s speed=59.4x    frame=101784 fps=3567 q=-1.0 size= 1862656kB time=00:28:15.68 bitrate=8998.7kbits/s speed=59.4x    frame=103757 fps=3574 q=-1.0 size= 1895680kB time=00:28:48.55 bitrate=8984.1kbits/s speed=59.5x    frame=106065 fps=3591 q=-1.0 size= 1928192kB time=00:29:26.98 bitrate=8939.4kbits/s speed=59.8x    frame=108310 fps=3606 q=-1.0 size= 1958400kB time=00:30:04.39 bitrate=8891.2kbits/s speed=60.1x    frame=110569 fps=3621 q=-1.0 size= 1992192kB time=00:30:42.05 bitrate=8859.7kbits/s speed=60.3x    frame=112694 fps=3631 q=-1.0 size= 2027008kB time=00:31:17.42 bitrate=8844.7kbits/s speed=60.5x    frame=114943 fps=3645 q=-1.0 size= 2058496kB time=00:31:54.90 bitrate=8806.3kbits/s speed=60.7x    frame=117115 fps=3655 q=-1.0 size= 2092800kB time=00:32:31.07 bitrate=8787.1kbits/s speed=60.9x    frame=119346 fps=3668 q=-1.0 size= 2126336kB time=00:33:08.23 bitrate=8761.0kbits/s speed=61.1x    frame=121263 fps=3670 q=-1.0 size= 2158848kB time=00:33:40.20 bitrate=8754.2kbits/s speed=61.1x    frame=123086 fps=3670 q=-1.0 size= 2190080kB time=00:34:10.54 bitrate=8749.4kbits/s speed=61.1x    frame=125208 fps=3678 q=-1.0 size= 2223104kB time=00:34:45.92 bitrate=8730.7kbits/s speed=61.3x    frame=127076 fps=3679 q=-1.0 size= 2256640kB time=00:35:17.01 bitrate=8732.3kbits/s speed=61.3x    frame=129251 fps=3688 q=-1.0 size= 2290432kB time=00:35:53.24 bitrate=8713.9kbits/s speed=61.4x    frame=131787 fps=3708 q=-1.0 size= 2320896kB time=00:36:35.49 bitrate=8659.9kbits/s speed=61.8x    frame=133789 fps=3712 q=-1.0 size= 2355712kB time=00:37:08.85 bitrate=8658.3kbits/s speed=61.8x    frame=135974 fps=3721 q=-1.0 size= 2391040kB time=00:37:45.25 bitrate=8646.9kbits/s speed=  62x    frame=137987 fps=3725 q=-1.0 size= 2423040kB time=00:38:18.75 bitrate=8634.9kbits/s speed=62.1x    frame=139963 fps=3728 q=-1.0 size= 2454528kB time=00:38:51.71 bitrate=8623.5kbits/s speed=62.1x    frame=141739 fps=3725 q=-1.0 size= 2485248kB time=00:39:21.29 bitrate=8622.0kbits/s speed=62.1x    frame=143590 fps=3725 q=-1.0 size= 2515712kB time=00:39:52.12 bitrate=8615.2kbits/s speed=62.1x    frame=145533 fps=3727 q=-1.0 size= 2546688kB time=00:40:24.49 bitrate=8604.9kbits/s speed=62.1x    frame=147465 fps=3729 q=-1.0 size= 2580480kB time=00:40:56.65 bitrate=8604.9kbits/s speed=62.1x    frame=149489 fps=3733 q=-1.0 size= 2612224kB time=00:41:30.37 bitrate=8592.8kbits/s speed=62.2x    frame=151688 fps=3741 q=-1.0 size= 2646272kB time=00:42:06.99 bitrate=8578.7kbits/s speed=62.3x    frame=153577 fps=3741 q=-1.0 size= 2678272kB time=00:42:38.45 bitrate=8575.6kbits/s speed=62.3x    frame=155434 fps=3741 q=-1.0 size= 2710016kB time=00:43:09.41 bitrate=8573.5kbits/s speed=62.3x    frame=157371 fps=3742 q=-1.0 size= 2742528kB time=00:43:41.66 bitrate=8569.7kbits/s speed=62.3x    frame=159141 fps=3740 q=-1.0 size= 2774016kB time=00:44:11.15 bitrate=8571.6kbits/s speed=62.3x    frame=161155 fps=3743 q=-1.0 size= 2804736kB time=00:44:44.68 bitrate=8558.3kbits/s speed=62.4x    frame=162968 fps=3742 q=-1.0 size= 2835712kB time=00:45:14.90 bitrate=8556.5kbits/s speed=62.3x    frame=164705 fps=3739 q=-1.0 size= 2866432kB time=00:45:43.83 bitrate=8558.0kbits/s speed=62.3x    frame=166546 fps=3738 q=-1.0 size= 2898432kB time=00:46:14.49 bitrate=8557.9kbits/s speed=62.3x    frame=168783 fps=3746 q=-1.0 size= 2932224kB time=00:46:51.77 bitrate=8542.9kbits/s speed=62.4x    frame=171671 fps=3768 q=-1.0 size= 2965760kB time=00:47:39.90 bitrate=8495.2kbits/s speed=62.8x    frame=175305 fps=3806 q=-1.0 size= 2999040kB time=00:48:40.42 bitrate=8412.5kbits/s speed=63.4x    frame=177682 fps=3816 q=-1.0 size= 3032064kB time=00:49:19.98 bitrate=8391.5kbits/s speed=63.6x    frame=179328 fps=3811 q=-1.0 size= 3064320kB time=00:49:47.41 bitrate=8402.9kbits/s speed=63.5x    frame=181373 fps=3814 q=-1.0 size= 3097600kB time=00:50:21.48 bitrate=8398.4kbits/s speed=63.5x    frame=183011 fps=3808 q=-1.0 size= 3129088kB time=00:50:48.73 bitrate=8407.9kbits/s speed=63.4x    frame=185354 fps=3817 q=-1.0 size= 3158272kB time=00:51:27.78 bitrate=8379.0kbits/s speed=63.6x    frame=187214 fps=3816 q=-1.0 size= 3190528kB time=00:51:58.78 bitrate=8380.5kbits/s speed=63.6x    frame=188963 fps=3813 q=-1.0 size= 3220992kB time=00:52:27.91 bitrate=8382.2kbits/s speed=63.5x    frame=190577 fps=3807 q=-1.0 size= 3250944kB time=00:52:54.79 bitrate=8388.5kbits/s speed=63.4x    frame=192278 fps=3803 q=-1.0 size= 3281664kB time=00:53:23.14 bitrate=8392.8kbits/s speed=63.4x    frame=193874 fps=3797 q=-1.0 size= 3311616kB time=00:53:49.73 bitrate=8399.7kbits/s speed=63.3x    frame=195519 fps=3792 q=-1.0 size= 3343104kB time=00:54:17.13 bitrate=8408.2kbits/s speed=63.2x    frame=197119 fps=3786 q=-1.0 size= 3375104kB time=00:54:43.76 bitrate=8419.9kbits/s speed=63.1x    frame=198970 fps=3785 q=-1.0 size= 3408384kB time=00:55:14.60 bitrate=8423.8kbits/s speed=63.1x    frame=200484 fps=3778 q=-1.0 size= 3438080kB time=00:55:39.82 bitrate=8433.0kbits/s speed=62.9x    frame=201947 fps=3770 q=-1.0 size= 3467520kB time=00:56:04.22 bitrate=8443.5kbits/s speed=62.8x    frame=204397 fps=3781 q=-1.0 size= 3497984kB time=00:56:45.05 bitrate=8415.6kbits/s speed=  63x    frame=206263 fps=3780 q=-1.0 size= 3528192kB time=00:57:16.13 bitrate=8411.5kbits/s speed=  63x    frame=207944 fps=3776 q=-1.0 size= 3558656kB time=00:57:44.14 bitrate=8415.5kbits/s speed=62.9x    frame=209659 fps=3773 q=-1.0 size= 3588608kB time=00:58:12.72 bitrate=8416.9kbits/s speed=62.9x    frame=211429 fps=3771 q=-1.0 size= 3618816kB time=00:58:42.21 bitrate=8416.7kbits/s speed=62.8x    frame=213343 fps=3772 q=-1.0 size= 3648512kB time=00:59:14.10 bitrate=8409.6kbits/s speed=62.8x    frame=215168 fps=3771 q=-1.0 size= 3678208kB time=00:59:44.50 bitrate=8406.1kbits/s speed=62.8x    frame=216838 fps=3767 q=-1.0 size= 3706880kB time=01:00:12.34 bitrate=8406.4kbits/s speed=62.8x    frame=218642 fps=3765 q=-1.0 size= 3736576kB time=01:00:42.40 bitrate=8403.8kbits/s speed=62.7x    frame=220579 fps=3766 q=-1.0 size= 3765760kB time=01:01:14.65 bitrate=8395.1kbits/s speed=62.7x    frame=223133 fps=3778 q=-1.0 size= 3794688kB time=01:01:57.24 bitrate=8362.7kbits/s speed=62.9x    frame=224760 fps=3773 q=-1.0 size= 3825408kB time=01:02:24.35 bitrate=8369.3kbits/s speed=62.9x    frame=226504 fps=3771 q=-1.0 size= 3856128kB time=01:02:53.38 bitrate=8371.6kbits/s speed=62.8x    frame=228104 fps=3766 q=-1.0 size= 3885312kB time=01:03:20.06 bitrate=8375.8kbits/s speed=62.7x    frame=230920 fps=3781 q=-1.0 size= 3914240kB time=01:04:06.97 bitrate=8335.2kbits/s speed=  63x    frame=233179 fps=3787 q=-1.0 size= 3943936kB time=01:04:44.62 bitrate=8317.1kbits/s speed=63.1x    frame=235098 fps=3788 q=-1.0 size= 3974656kB time=01:05:16.58 bitrate=8313.5kbits/s speed=63.1x    frame=237067 fps=3789 q=-1.0 size= 4008448kB time=01:05:49.40 bitrate=8314.5kbits/s speed=63.1x    frame=239858 fps=3803 q=-1.0 size= 4042496kB time=01:06:35.88 bitrate=8287.6kbits/s speed=63.4x    frame=241445 fps=3798 q=-1.0 size= 4072192kB time=01:07:02.32 bitrate=8293.6kbits/s speed=63.3x    frame=243604 fps=3802 q=-1.0 size= 4105472kB time=01:07:38.29 bitrate=8287.2kbits/s speed=63.3x    frame=245522 fps=3802 q=-1.0 size= 4139520kB time=01:08:10.22 bitrate=8290.7kbits/s speed=63.3x    frame=248292 fps=3816 q=-1.0 size= 4172288kB time=01:08:56.37 bitrate=8263.1kbits/s speed=63.6x    frame=250810 fps=3825 q=-1.0 size= 4206080kB time=01:09:38.31 bitrate=8246.4kbits/s speed=63.7x    frame=253138 fps=3831 q=-1.0 size= 4240384kB time=01:10:17.10 bitrate=8237.2kbits/s speed=63.8x    frame=255282 fps=3834 q=-1.0 size= 4273920kB time=01:10:52.79 bitrate=8232.7kbits/s speed=63.9x    frame=257504 fps=3839 q=-1.0 size= 4308736kB time=01:11:29.82 bitrate=8228.1kbits/s speed=  64x    frame=260197 fps=3850 q=-1.0 size= 4342016kB time=01:12:14.70 bitrate=8205.8kbits/s speed=64.1x    frame=261972 fps=3848 q=-1.0 size= 4372992kB time=01:12:44.29 bitrate=8208.3kbits/s speed=64.1x    frame=263649 fps=3844 q=-1.0 size= 4404480kB time=01:13:12.22 bitrate=8214.9kbits/s speed=  64x    frame=266061 fps=3851 q=-1.0 size= 4437248kB time=01:13:52.38 bitrate=8201.0kbits/s speed=64.2x    frame=267809 fps=3849 q=-1.0 size= 4468736kB time=01:14:21.54 bitrate=8205.2kbits/s speed=64.1x    frame=269649 fps=3848 q=-1.0 size= 4503296kB time=01:14:52.14 bitrate=8212.3kbits/s speed=64.1x    frame=271407 fps=3845 q=-1.0 size= 4538112kB time=01:15:21.46 bitrate=8222.2kbits/s speed=64.1x    frame=273148 fps=3843 q=-1.0 size= 4571648kB time=01:15:50.46 bitrate=8230.1kbits/s speed=  64x    frame=275032 fps=3842 q=-1.0 size= 4604160kB time=01:16:21.84 bitrate=8231.9kbits/s speed=  64x    frame=276803 fps=3840 q=-1.0 size= 4636928kB time=01:16:51.32 bitrate=8237.5kbits/s speed=  64x    frame=279089 fps=3845 q=-1.0 size= 4667648kB time=01:17:29.41 bitrate=8224.1kbits/s speed=64.1x    frame=280786 fps=3842 q=-1.0 size= 4702208kB time=01:17:57.68 bitrate=8235.0kbits/s speed=  64x    frame=282481 fps=3839 q=-1.0 size= 4736256kB time=01:18:25.89 bitrate=8244.9kbits/s speed=  64x    frame=284118 fps=3835 q=-1.0 size= 4769536kB time=01:18:53.19 bitrate=8254.9kbits/s speed=63.9x    frame=285938 fps=3834 q=-1.0 size= 4804608kB time=01:19:23.52 bitrate=8262.7kbits/s speed=63.9x    frame=287615 fps=3830 q=-1.0 size= 4839424kB time=01:19:51.44 bitrate=8274.0kbits/s speed=63.8x    frame=289444 fps=3829 q=-1.0 size= 4871424kB time=01:20:21.91 bitrate=8276.1kbits/s speed=63.8x    frame=291917 fps=3837 q=-1.0 size= 4905216kB time=01:21:03.12 bitrate=8262.9kbits/s speed=63.9x    frame=293563 fps=3833 q=-1.0 size= 4937216kB time=01:21:30.55 bitrate=8270.2kbits/s speed=63.9x    frame=295398 fps=3832 q=-1.0 size= 4971520kB time=01:22:01.13 bitrate=8275.9kbits/s speed=63.8x    frame=297190 fps=3830 q=-1.0 size= 5004032kB time=01:22:30.99 bitrate=8279.8kbits/s speed=63.8x    frame=298921 fps=3828 q=-1.0 size= 5035520kB time=01:22:59.82 bitrate=8283.6kbits/s speed=63.8x    frame=300666 fps=3826 q=-1.0 size= 5068800kB time=01:23:28.88 bitrate=8290.0kbits/s speed=63.7x    frame=302500 fps=3825 q=-1.0 size= 5103360kB time=01:23:59.43 bitrate=8295.9kbits/s speed=63.7x    frame=304360 fps=3824 q=-1.0 size= 5135104kB time=01:24:30.42 bitrate=8296.5kbits/s speed=63.7x    frame=306245 fps=3824 q=-1.0 size= 5169664kB time=01:25:01.84 bitrate=8300.9kbits/s speed=63.7x    frame=308169 fps=3824 q=-1.0 size= 5203968kB time=01:25:33.90 bitrate=8303.8kbits/s speed=63.7x    frame=310138 fps=3824 q=-1.0 size= 5235968kB time=01:26:06.66 bitrate=8301.9kbits/s speed=63.7x    frame=311921 fps=3823 q=-1.0 size= 5269760kB time=01:26:36.37 bitrate=8307.7kbits/s speed=63.7x    frame=313882 fps=3823 q=-1.0 size= 5304064kB time=01:27:09.05 bitrate=8309.5kbits/s speed=63.7x    frame=315443 fps=3819 q=-1.0 size= 5334016kB time=01:27:35.09 bitrate=8315.0kbits/s speed=63.6x    frame=317443 fps=3820 q=-1.0 size= 5368320kB time=01:28:08.39 bitrate=8315.8kbits/s speed=63.6x    frame=319213 fps=3818 q=-1.0 size= 5400832kB time=01:28:37.89 bitrate=8319.8kbits/s speed=63.6x    frame=320975 fps=3816 q=-1.0 size= 5434624kB time=01:29:07.24 bitrate=8325.9kbits/s speed=63.6x    frame=324900 fps=3840 q=-1.0 size= 5465856kB time=01:30:12.63 bitrate=8272.5kbits/s speed=  64x    frame=326561 fps=3837 q=-1.0 size= 5498880kB time=01:30:40.32 bitrate=8280.2kbits/s speed=63.9x    frame=327994 fps=3831 q=-1.0 size= 5528576kB time=01:31:04.16 bitrate=8288.6kbits/s speed=63.8x    frame=330662 fps=3840 q=-1.0 size= 5559552kB time=01:31:48.63 bitrate=8267.7kbits/s speed=  64x    frame=332712 fps=3841 q=-1.0 size= 5590784kB time=01:32:22.76 bitrate=8263.0kbits/s speed=  64x    frame=334438 fps=3839 q=-1.0 size= 5619456kB time=01:32:51.55 bitrate=8262.4kbits/s speed=  64x    frame=336225 fps=3838 q=-1.0 size= 5651456kB time=01:33:21.31 bitrate=8265.3kbits/s speed=63.9x    frame=338121 fps=3837 q=-1.0 size= 5684224kB time=01:33:52.88 bitrate=8266.7kbits/s speed=63.9x    frame=339680 fps=3833 q=-1.0 size= 5715712kB time=01:34:18.86 bitrate=8274.3kbits/s speed=63.9x    frame=342372 fps=3842 q=-1.0 size= 5748736kB time=01:35:03.68 bitrate=8256.7kbits/s speed=  64x    frame=344819 fps=3848 q=-1.0 size= 5779968kB time=01:35:44.48 bitrate=8242.6kbits/s speed=64.1x    frame=347329 fps=3854 q=-1.0 size= 5810944kB time=01:36:26.29 bitrate=8226.9kbits/s speed=64.2x    frame=349070 fps=3852 q=-1.0 size= 5843712kB time=01:36:55.30 bitrate=8232.0kbits/s speed=64.2x    frame=351058 fps=3853 q=-1.0 size= 5876224kB time=01:37:28.42 bitrate=8230.9kbits/s speed=64.2x    frame=352790 fps=3851 q=-1.0 size= 5908736kB time=01:37:57.25 bitrate=8235.9kbits/s speed=64.2x    frame=354856 fps=3852 q=-1.0 size= 5944064kB time=01:38:31.67 bitrate=8236.9kbits/s speed=64.2x    frame=356439 fps=3849 q=-1.0 size= 5976832kB time=01:38:58.06 bitrate=8245.5kbits/s speed=64.1x    frame=358263 fps=3847 q=-1.0 size= 6009600kB time=01:39:28.46 bitrate=8248.5kbits/s speed=64.1x    frame=360262 fps=3848 q=-1.0 size= 6043904kB time=01:40:01.78 bitrate=8249.5kbits/s speed=64.1x    frame=363048 fps=3857 q=-1.0 size= 6077696kB time=01:40:48.19 bitrate=8232.0kbits/s speed=64.3x    frame=364683 fps=3854 q=-1.0 size= 6111488kB time=01:41:15.43 bitrate=8240.6kbits/s speed=64.2x    frame=366449 fps=3853 q=-1.0 size= 6144768kB time=01:41:44.83 bitrate=8245.6kbits/s speed=64.2x    frame=368090 fps=3850 q=-1.0 size= 6178816kB time=01:42:12.14 bitrate=8254.3kbits/s speed=64.1x    frame=369802 fps=3847 q=-1.0 size= 6213376kB time=01:42:40.70 bitrate=8262.0kbits/s speed=64.1x    frame=371604 fps=3846 q=-1.0 size= 6246656kB time=01:43:10.72 bitrate=8266.0kbits/s speed=64.1x    frame=374067 fps=3851 q=-1.0 size= 6277888kB time=01:43:51.74 bitrate=8252.7kbits/s speed=64.2x    frame=375722 fps=3849 q=-1.0 size= 6312448kB time=01:44:19.31 bitrate=8261.5kbits/s speed=64.1x    frame=377728 fps=3850 q=-1.0 size= 6347264kB time=01:44:52.70 bitrate=8263.0kbits/s speed=64.1x    frame=379299 fps=3846 q=-1.0 size= 6380032kB time=01:45:18.86 bitrate=8271.3kbits/s speed=64.1x    frame=381033 fps=3844 q=-1.0 size= 6411776kB time=01:45:47.76 bitrate=8274.6kbits/s speed=  64x    frame=382725 fps=3842 q=-1.0 size= 6445312kB time=01:46:15.95 bitrate=8281.1kbits/s speed=  64x    frame=384506 fps=3840 q=-1.0 size= 6479872kB time=01:46:45.60 bitrate=8287.0kbits/s speed=  64x    frame=386149 fps=3838 q=-1.0 size= 6513920kB time=01:47:12.98 bitrate=8295.1kbits/s speed=63.9x    frame=387796 fps=3835 q=-1.0 size= 6547712kB time=01:47:40.43 bitrate=8302.7kbits/s speed=63.9x    frame=389396 fps=3832 q=-1.0 size= 6578688kB time=01:48:07.09 bitrate=8307.7kbits/s speed=63.8x    frame=391377 fps=3832 q=-1.0 size= 6612480kB time=01:48:40.05 bitrate=8308.1kbits/s speed=63.8x    frame=393193 fps=3831 q=-1.0 size= 6647040kB time=01:49:10.34 bitrate=8312.9kbits/s speed=63.8x    frame=394770 fps=3828 q=-1.0 size= 6679808kB time=01:49:36.60 bitrate=8320.6kbits/s speed=63.8x    frame=396447 fps=3826 q=-1.0 size= 6713856kB time=01:50:04.50 bitrate=8327.6kbits/s speed=63.7x    frame=398253 fps=3825 q=-1.0 size= 6748416kB time=01:50:34.58 bitrate=8332.6kbits/s speed=63.7x    frame=400983 fps=3832 q=-1.0 size= 6779904kB time=01:51:20.07 bitrate=8314.4kbits/s speed=63.8x    frame=403712 fps=3840 q=-1.0 size= 6813184kB time=01:52:05.52 bitrate=8298.8kbits/s speed=  64x    frame=406085 fps=3844 q=-1.0 size= 6846976kB time=01:52:45.06 bitrate=8291.2kbits/s speed=  64x    frame=408589 fps=3850 q=-1.0 size= 6877696kB time=01:53:26.74 bitrate=8277.4kbits/s speed=64.1x    frame=411177 fps=3856 q=-1.0 size= 6910976kB time=01:54:09.87 bitrate=8265.1kbits/s speed=64.2x    frame=413167 fps=3857 q=-1.0 size= 6946048kB time=01:54:43.04 bitrate=8267.0kbits/s speed=64.2x    frame=415003 fps=3856 q=-1.0 size= 6979840kB time=01:55:13.62 bitrate=8270.5kbits/s speed=64.2x    frame=416655 fps=3853 q=-1.0 size= 7012096kB time=01:55:41.15 bitrate=8275.7kbits/s speed=64.2x    frame=418399 fps=3851 q=-1.0 size= 7046400kB time=01:56:10.19 bitrate=8281.6kbits/s speed=64.2x    frame=420186 fps=3850 q=-1.0 size= 7079168kB time=01:56:39.96 bitrate=8284.7kbits/s speed=64.1x    frame=421966 fps=3849 q=-1.0 size= 7113728kB time=01:57:09.63 bitrate=8290.0kbits/s speed=64.1x    frame=423625 fps=3846 q=-1.0 size= 7147264kB time=01:57:37.28 bitrate=8296.4kbits/s speed=64.1x    frame=425951 fps=3850 q=-1.0 size= 7179776kB time=01:58:16.01 bitrate=8288.7kbits/s speed=64.1x    frame=427858 fps=3850 q=-1.0 size= 7213824kB time=01:58:47.80 bitrate=8290.9kbits/s speed=64.1x    frame=429472 fps=3847 q=-1.0 size= 7246336kB time=01:59:14.69 bitrate=8296.9kbits/s speed=64.1x    frame=431119 fps=3845 q=-1.0 size= 7279360kB time=01:59:42.13 bitrate=8302.9kbits/s speed=  64x    frame=433606 fps=3850 q=-1.0 size= 7312896kB time=02:00:23.53 bitrate=8293.3kbits/s speed=64.1x    frame=435332 fps=3848 q=-1.0 size= 7344896kB time=02:00:52.26 bitrate=8296.6kbits/s speed=64.1x    frame=437042 fps=3846 q=-1.0 size= 7379200kB time=02:01:20.77 bitrate=8302.7kbits/s speed=64.1x    frame=438743 fps=3844 q=-1.0 size= 7413760kB time=02:01:49.11 bitrate=8309.3kbits/s speed=  64x    frame=441270 fps=3849 q=-1.0 size= 7448320kB time=02:02:31.18 bitrate=8300.2kbits/s speed=64.1x    frame=443485 fps=3852 q=-1.0 size= 7483648kB time=02:03:08.11 bitrate=8297.9kbits/s speed=64.2x    frame=445405 fps=3852 q=-1.0 size= 7515904kB time=02:03:40.10 bitrate=8297.8kbits/s speed=64.2x    frame=447544 fps=3853 q=-1.0 size= 7547648kB time=02:04:15.73 bitrate=8293.0kbits/s speed=64.2x    frame=449453 fps=3853 q=-1.0 size= 7581952kB time=02:04:47.53 bitrate=8295.3kbits/s speed=64.2x    frame=451418 fps=3853 q=-1.0 size= 7614208kB time=02:05:20.23 bitrate=8294.4kbits/s speed=64.2x    frame=453866 fps=3858 q=-1.0 size= 7645696kB time=02:06:01.02 bitrate=8283.7kbits/s speed=64.3x    frame=456195 fps=3861 q=-1.0 size= 7680256kB time=02:06:39.82 bitrate=8278.7kbits/s speed=64.3x    frame=458874 fps=3867 q=-1.0 size= 7713536kB time=02:07:24.45 bitrate=8266.0kbits/s speed=64.4x    frame=461280 fps=3871 q=-1.0 size= 7745280kB time=02:08:04.55 bitrate=8256.7kbits/s speed=64.5x    frame=463469 fps=3873 q=-1.0 size= 7776768kB time=02:08:41.00 bitrate=8251.2kbits/s speed=64.5x    frame=465870 fps=3877 q=-1.0 size= 7808256kB time=02:09:20.99 bitrate=8241.9kbits/s speed=64.6x    frame=467656 fps=3876 q=-1.0 size= 7842304kB time=02:09:50.73 bitrate=8246.2kbits/s speed=64.6x    frame=469203 fps=3873 q=-1.0 size= 7874304kB time=02:10:16.52 bitrate=8252.6kbits/s speed=64.5x    frame=471560 fps=3876 q=-1.0 size= 7904256kB time=02:10:55.74 bitrate=8242.6kbits/s speed=64.6x    frame=473014 fps=3872 q=-1.0 size= 7933440kB time=02:11:19.96 bitrate=8247.6kbits/s speed=64.5x    frame=475624 fps=3878 q=-1.0 size= 7965696kB time=02:12:03.46 bitrate=8235.7kbits/s speed=64.6x    frame=477408 fps=3876 q=-1.0 size= 7998976kB time=02:12:33.18 bitrate=8239.2kbits/s speed=64.6x    frame=480223 fps=3883 q=-1.0 size= 8031744kB time=02:13:20.05 bitrate=8224.4kbits/s speed=64.7x    frame=483281 fps=3892 q=-1.0 size= 8063744kB time=02:14:11.01 bitrate=8205.0kbits/s speed=64.8x    frame=485055 fps=3891 q=-1.0 size= 8094976kB time=02:14:40.57 bitrate=8206.6kbits/s speed=64.8x    frame=487955 fps=3899 q=-1.0 size= 8127744kB time=02:15:28.87 bitrate=8190.9kbits/s speed=64.9x    frame=490419 fps=3903 q=-1.0 size= 8159744kB time=02:16:09.92 bitrate=8181.8kbits/s speed=  65x    frame=492384 fps=3903 q=-1.0 size= 8193792kB time=02:16:42.66 bitrate=8183.1kbits/s speed=  65x    frame=494040 fps=3901 q=-1.0 size= 8228352kB time=02:17:10.25 bitrate=8190.1kbits/s speed=  65x    frame=495620 fps=3898 q=-1.0 size= 8259072kB time=02:17:36.54 bitrate=8194.5kbits/s speed=64.9x    frame=497270 fps=3895 q=-1.0 size= 8292096kB time=02:18:04.04 bitrate=8200.0kbits/s speed=64.9x    frame=498980 fps=3893 q=-1.0 size= 8325888kB time=02:18:32.54 bitrate=8205.2kbits/s speed=64.9x    frame=500671 fps=3891 q=-1.0 size= 8358400kB time=02:19:00.72 bitrate=8209.4kbits/s speed=64.8x    frame=503174 fps=3896 q=-1.0 size= 8391936kB time=02:19:42.43 bitrate=8201.3kbits/s speed=64.9x    frame=505670 fps=3900 q=-1.0 size= 8427264kB time=02:20:24.00 bitrate=8195.2kbits/s speed=  65x    frame=507269 fps=3897 q=-1.0 size= 8457984kB time=02:20:50.63 bitrate=8199.1kbits/s speed=64.9x    frame=509512 fps=3899 q=-1.0 size= 8490496kB time=02:21:27.99 bitrate=8194.4kbits/s speed=  65x    frame=511286 fps=3898 q=-1.0 size= 8522496kB time=02:21:57.54 bitrate=8196.8kbits/s speed=64.9x    frame=512942 fps=3896 q=-1.0 size= 8553472kB time=02:22:25.13 bitrate=8200.0kbits/s speed=64.9x    frame=514806 fps=3895 q=-1.0 size= 8587264kB time=02:22:56.20 bitrate=8202.6kbits/s speed=64.9x    frame=516879 fps=3896 q=-1.0 size= 8627200kB time=02:23:30.75 bitrate=8207.6kbits/s speed=64.9x    frame=519095 fps=3898 q=-1.0 size= 8656896kB time=02:24:07.66 bitrate=8200.7kbits/s speed=64.9x    frame=520617 fps=3895 q=-1.0 size= 8688640kB time=02:24:33.02 bitrate=8206.8kbits/s speed=64.9x    frame=522396 fps=3894 q=-1.0 size= 8723200kB time=02:25:02.65 bitrate=8211.3kbits/s speed=64.9x    frame=524694 fps=3896 q=-1.0 size= 8756480kB time=02:25:40.91 bitrate=8206.6kbits/s speed=64.9x    frame=527560 fps=3903 q=-1.0 size= 8792576kB time=02:26:28.66 bitrate=8195.6kbits/s speed=  65x    frame=530074 fps=3907 q=-1.0 size= 8828672kB time=02:27:10.55 bitrate=8190.3kbits/s speed=65.1x    frame=532408 fps=3910 q=-1.0 size= 8860928kB time=02:27:49.45 bitrate=8184.1kbits/s speed=65.1x    frame=534834 fps=3913 q=-1.0 size= 8895744kB time=02:28:29.88 bitrate=8179.0kbits/s speed=65.2x    frame=537521 fps=3919 q=-1.0 size= 8931072kB time=02:29:14.63 bitrate=8170.4kbits/s speed=65.3x    frame=541119 fps=3931 q=-1.0 size= 8964864kB time=02:30:14.60 bitrate=8146.8kbits/s speed=65.5x    frame=542897 fps=3929 q=-1.0 size= 8994560kB time=02:30:44.20 bitrate=8147.0kbits/s speed=65.5x    frame=545841 fps=3936 q=-1.0 size= 9025280kB time=02:31:33.24 bitrate=8130.8kbits/s speed=65.6x    frame=548045 fps=3938 q=-1.0 size= 9057024kB time=02:32:09.97 bitrate=8126.5kbits/s speed=65.6x    frame=549897 fps=3937 q=-1.0 size= 9086976kB time=02:32:40.86 bitrate=8125.9kbits/s speed=65.6x    frame=552045 fps=3938 q=-1.0 size= 9121536kB time=02:33:16.64 bitrate=8125.1kbits/s speed=65.6x    frame=554301 fps=3941 q=-1.0 size= 9153536kB time=02:33:54.21 bitrate=8120.4kbits/s speed=65.6x    frame=555999 fps=3939 q=-1.0 size= 9184512kB time=02:34:22.50 bitrate=8123.0kbits/s speed=65.6x    frame=557938 fps=3938 q=-1.0 size= 9218304kB time=02:34:54.84 bitrate=8124.5kbits/s speed=65.6x    frame=559996 fps=3939 q=-1.0 size= 9251584kB time=02:35:29.13 bitrate=8123.9kbits/s speed=65.6x    frame=562013 fps=3939 q=-1.0 size= 9281280kB time=02:36:02.75 bitrate=8120.7kbits/s speed=65.6x    frame=563896 fps=3939 q=-1.0 size= 9314560kB time=02:36:34.13 bitrate=8122.6kbits/s speed=65.6x    frame=565901 fps=3939 q=-1.0 size= 9347072kB time=02:37:07.53 bitrate=8122.1kbits/s speed=65.6x    frame=567652 fps=3937 q=-1.0 size= 9376768kB time=02:37:36.69 bitrate=8122.8kbits/s speed=65.6x    frame=569873 fps=3939 q=-1.0 size= 9408000kB time=02:38:13.69 bitrate=8118.1kbits/s speed=65.6x    frame=572561 fps=3944 q=-1.0 size= 9437952kB time=02:38:58.48 bitrate=8105.7kbits/s speed=65.7x    frame=574109 fps=3941 q=-1.0 size= 9467136kB time=02:39:24.29 bitrate=8108.8kbits/s speed=65.7x    frame=576023 fps=3941 q=-1.0 size= 9500416kB time=02:39:56.15 bitrate=8110.3kbits/s speed=65.6x    frame=578029 fps=3941 q=-1.0 size= 9534464kB time=02:40:29.58 bitrate=8111.1kbits/s speed=65.7x    frame=579683 fps=3939 q=-1.0 size= 9564672kB time=02:40:57.12 bitrate=8113.6kbits/s speed=65.6x    frame=581926 fps=3941 q=-1.0 size= 9598208kB time=02:41:34.52 bitrate=8110.6kbits/s speed=65.6x    frame=583804 fps=3940 q=-1.0 size= 9630720kB time=02:42:05.77 bitrate=8111.9kbits/s speed=65.6x    frame=585958 fps=3941 q=-1.0 size= 9663488kB time=02:42:41.68 bitrate=8109.6kbits/s speed=65.7x    frame=588014 fps=3942 q=-1.0 size= 9697280kB time=02:43:15.92 bitrate=8109.5kbits/s speed=65.7x    frame=590001 fps=3942 q=-1.0 size= 9731072kB time=02:43:48.98 bitrate=8110.4kbits/s speed=65.7x    frame=591983 fps=3942 q=-1.0 size= 9764096kB time=02:44:22.01 bitrate=8110.7kbits/s speed=65.7x    frame=594029 fps=3942 q=-1.0 size= 9799424kB time=02:44:56.06 bitrate=8112.0kbits/s speed=65.7x    frame=595859 fps=3941 q=-1.0 size= 9832448kB time=02:45:26.54 bitrate=8114.3kbits/s speed=65.7x    frame=598778 fps=3948 q=-1.0 size= 9863424kB time=02:46:15.15 bitrate=8100.2kbits/s speed=65.8x    frame=600675 fps=3947 q=-1.0 size= 9897984kB time=02:46:46.74 bitrate=8103.0kbits/s speed=65.8x    frame=602889 fps=3949 q=-1.0 size= 9932800kB time=02:47:23.66 bitrate=8101.6kbits/s speed=65.8x    frame=604618 fps=3947 q=-1.0 size= 9966592kB time=02:47:52.47 bitrate=8105.9kbits/s speed=65.8x    frame=606824 fps=3949 q=-1.0 size=10000640kB time=02:48:29.20 bitrate=8104.0kbits/s speed=65.8x    frame=608493 fps=3947 q=-1.0 size=10034432kB time=02:48:57.03 bitrate=8109.1kbits/s speed=65.7x    frame=610331 fps=3946 q=-1.0 size=10067200kB time=02:49:27.61 bitrate=8111.1kbits/s speed=65.7x    frame=613092 fps=3951 q=-1.0 size=10102016kB time=02:50:13.65 bitrate=8102.5kbits/s speed=65.8x    frame=615055 fps=3951 q=-1.0 size=10134528kB time=02:50:46.37 bitrate=8102.6kbits/s speed=65.8x    frame=616891 fps=3950 q=-1.0 size=10169600kB time=02:51:16.92 bitrate=8106.4kbits/s speed=65.8x    frame=618534 fps=3948 q=-1.0 size=10203392kB time=02:51:44.32 bitrate=8111.8kbits/s speed=65.8x    frame=620340 fps=3947 q=-1.0 size=10236928kB time=02:52:14.42 bitrate=8114.7kbits/s speed=65.7x    frame=622198 fps=3946 q=-1.0 size=10272000kB time=02:52:45.34 bitrate=8118.2kbits/s speed=65.7x    frame=623846 fps=3944 q=-1.0 size=10306304kB time=02:53:12.81 bitrate=8123.8kbits/s speed=65.7x    frame=625326 fps=3941 q=-1.0 size=10337024kB time=02:53:37.46 bitrate=8128.7kbits/s speed=65.6x    frame=626987 fps=3939 q=-1.0 size=10371328kB time=02:54:05.14 bitrate=8134.1kbits/s speed=65.6x    frame=628846 fps=3938 q=-1.0 size=10405632kB time=02:54:36.10 bitrate=8136.9kbits/s speed=65.6x    frame=631441 fps=3942 q=-1.0 size=10436608kB time=02:55:19.32 bitrate=8127.6kbits/s speed=65.7x    frame=634121 fps=3946 q=-1.0 size=10469632kB time=02:56:03.96 bitrate=8118.9kbits/s speed=65.7x    frame=636128 fps=3946 q=-1.0 size=10502400kB time=02:56:37.41 bitrate=8118.6kbits/s speed=65.7x    frame=638241 fps=3947 q=-1.0 size=10532096kB time=02:57:12.61 bitrate=8114.6kbits/s speed=65.8x    frame=640448 fps=3949 q=-1.0 size=10566144kB time=02:57:49.37 bitrate=8112.7kbits/s speed=65.8x    frame=642710 fps=3950 q=-1.0 size=10600704kB time=02:58:27.05 bitrate=8110.6kbits/s speed=65.8x    frame=644874 fps=3952 q=-1.0 size=10630912kB time=02:59:03.11 bitrate=8106.4kbits/s speed=65.8x    frame=646954 fps=3952 q=-1.0 size=10663936kB time=02:59:37.78 bitrate=8105.5kbits/s speed=65.8x    frame=648602 fps=3950 q=-1.0 size=10696960kB time=03:00:05.22 bitrate=8109.9kbits/s speed=65.8x    frame=650729 fps=3951 q=-1.0 size=10727680kB time=03:00:40.64 bitrate=8106.6kbits/s speed=65.8x    frame=652594 fps=3950 q=-1.0 size=10761728kB time=03:01:11.71 bitrate=8109.1kbits/s speed=65.8x    frame=654701 fps=3951 q=-1.0 size=10795776kB time=03:01:46.82 bitrate=8108.6kbits/s speed=65.8x    frame=656234 fps=3949 q=-1.0 size=10825472kB time=03:02:12.36 bitrate=8111.9kbits/s speed=65.8x    frame=658112 fps=3948 q=-1.0 size=10859776kB time=03:02:43.65 bitrate=8114.4kbits/s speed=65.8x    frame=660109 fps=3948 q=-1.0 size=10894592kB time=03:03:16.88 bitrate=8115.8kbits/s speed=65.8x    frame=662036 fps=3948 q=-1.0 size=10927872kB time=03:03:49.01 bitrate=8116.9kbits/s speed=65.8x    frame=663965 fps=3947 q=-1.0 size=10962432kB time=03:04:21.14 bitrate=8118.9kbits/s speed=65.8x    frame=666397 fps=3950 q=-1.0 size=10994176kB time=03:05:01.64 bitrate=8112.7kbits/s speed=65.8x    frame=668013 fps=3948 q=-1.0 size=11025152kB time=03:05:28.58 bitrate=8115.9kbits/s speed=65.8x    frame=669766 fps=3947 q=-1.0 size=11058432kB time=03:05:57.79 bitrate=8119.0kbits/s speed=65.7x    frame=671544 fps=3946 q=-1.0 size=11092480kB time=03:06:27.40 bitrate=8122.5kbits/s speed=65.7x    frame=673262 fps=3944 q=-1.0 size=11126784kB time=03:06:56.00 bitrate=8126.8kbits/s speed=65.7x    frame=675905 fps=3948 q=-1.0 size=11158528kB time=03:07:40.05 bitrate=8118.1kbits/s speed=65.8x    frame=677544 fps=3946 q=-1.0 size=11190528kB time=03:08:07.33 bitrate=8121.7kbits/s speed=65.7x    frame=679223 fps=3944 q=-1.0 size=11223808kB time=03:08:35.29 bitrate=8125.8kbits/s speed=65.7x    frame=680882 fps=3942 q=-1.0 size=11258368kB time=03:09:02.93 bitrate=8130.9kbits/s speed=65.7x    frame=683194 fps=3944 q=-1.0 size=11291136kB time=03:09:41.45 bitrate=8127.0kbits/s speed=65.7x    frame=684831 fps=3942 q=-1.0 size=11322112kB time=03:10:08.73 bitrate=8129.8kbits/s speed=65.7x    frame=686391 fps=3940 q=-1.0 size=11354624kB time=03:10:34.70 bitrate=8134.6kbits/s speed=65.6x    frame=688074 fps=3938 q=-1.0 size=11389184kB time=03:11:02.77 bitrate=8139.4kbits/s speed=65.6x    frame=689786 fps=3937 q=-1.0 size=11422720kB time=03:11:31.26 bitrate=8143.1kbits/s speed=65.6x    frame=691515 fps=3936 q=-1.0 size=11457024kB time=03:12:00.09 bitrate=8147.1kbits/s speed=65.6x    frame=694371 fps=3941 q=-1.0 size=11489536kB time=03:12:47.66 bitrate=8136.7kbits/s speed=65.6x    frame=696243 fps=3940 q=-1.0 size=11520768kB time=03:13:18.88 bitrate=8136.8kbits/s speed=65.6x    frame=697874 fps=3938 q=-1.0 size=11551232kB time=03:13:46.03 bitrate=8139.3kbits/s speed=65.6x    frame=699635 fps=3937 q=-1.0 size=11583232kB time=03:14:15.36 bitrate=8141.3kbits/s speed=65.6x    frame=701371 fps=3936 q=-1.0 size=11615488kB time=03:14:44.27 bitrate=8143.8kbits/s speed=65.6x    frame=703194 fps=3935 q=-1.0 size=11646976kB time=03:15:14.62 bitrate=8144.7kbits/s speed=65.6x    frame=704887 fps=3933 q=-1.0 size=11681280kB time=03:15:42.86 bitrate=8149.0kbits/s speed=65.5x    frame=706687 fps=3932 q=-1.0 size=11714560kB time=03:16:12.83 bitrate=8151.4kbits/s speed=65.5x    frame=708274 fps=3930 q=-1.0 size=11746304kB time=03:16:39.27 bitrate=8155.2kbits/s speed=65.5x    frame=710235 fps=3930 q=-1.0 size=11775232kB time=03:17:11.95 bitrate=8152.7kbits/s speed=65.5x    frame=712145 fps=3930 q=-1.0 size=11803904kB time=03:17:43.76 bitrate=8150.7kbits/s speed=65.5x    frame=713960 fps=3929 q=-1.0 size=11833088kB time=03:18:13.98 bitrate=8150.1kbits/s speed=65.5x    frame=715679 fps=3928 q=-1.0 size=11865344kB time=03:18:42.62 bitrate=8152.6kbits/s speed=65.4x    frame=717897 fps=3929 q=-1.0 size=11896320kB time=03:19:19.60 bitrate=8148.7kbits/s speed=65.5x    frame=719502 fps=3927 q=-1.0 size=11928064kB time=03:19:46.33 bitrate=8152.2kbits/s speed=65.4x    frame=723173 fps=3936 q=-1.0 size=11958272kB time=03:20:47.46 bitrate=8131.4kbits/s speed=65.6x    frame=725142 fps=3936 q=-1.0 size=11989248kB time=03:21:20.23 bitrate=8130.3kbits/s speed=65.6x    frame=727092 fps=3936 q=-1.0 size=12021760kB time=03:21:52.76 bitrate=8130.5kbits/s speed=65.6x    frame=729052 fps=3936 q=-1.0 size=12054272kB time=03:22:25.40 bitrate=8130.5kbits/s speed=65.6x    frame=731519 fps=3939 q=-1.0 size=12086016kB time=03:23:06.51 bitrate=8124.4kbits/s speed=65.6x    frame=733523 fps=3939 q=-1.0 size=12118784kB time=03:23:39.91 bitrate=8124.2kbits/s speed=65.6x    frame=735305 fps=3938 q=-1.0 size=12151040kB time=03:24:09.58 bitrate=8126.1kbits/s speed=65.6x    frame=737375 fps=3938 q=-1.0 size=12180992kB time=03:24:44.03 bitrate=8123.3kbits/s speed=65.6x    frame=739509 fps=3939 q=-1.0 size=12213760kB time=03:25:19.58 bitrate=8121.6kbits/s speed=65.6x    frame=741562 fps=3940 q=-1.0 size=12245760kB time=03:25:53.76 bitrate=8120.4kbits/s speed=65.6x    frame=743391 fps=3939 q=-1.0 size=12276992kB time=03:26:24.24 bitrate=8121.1kbits/s speed=65.6x    frame=745748 fps=3941 q=-1.0 size=12308480kB time=03:27:03.54 bitrate=8116.1kbits/s speed=65.7x    frame=747483 fps=3940 q=-1.0 size=12340992kB time=03:27:32.42 bitrate=8118.7kbits/s speed=65.6x    frame=749082 fps=3938 q=-1.0 size=12372480kB time=03:27:59.05 bitrate=8122.0kbits/s speed=65.6x    frame=750697 fps=3936 q=-1.0 size=12404736kB time=03:28:25.93 bitrate=8125.7kbits/s speed=65.6x    frame=752390 fps=3935 q=-1.0 size=12436736kB time=03:28:54.15 bitrate=8128.3kbits/s speed=65.5x    frame=754118 fps=3933 q=-1.0 size=12468224kB time=03:29:22.94 bitrate=8130.2kbits/s speed=65.5x    frame=758257 fps=3944 q=-1.0 size=12499968kB time=03:30:31.85 bitrate=8106.5kbits/s speed=65.7x    frame=759095 fps=3947 q=-1.0 Lsize=12505497kB time=03:30:45.83 bitrate=8101.1kbits/s speed=65.8x    
video:12174014kB audio:306066kB subtitle:0kB other streams:0kB global headers:0kB muxing overhead: 0.203654%
